TITLE ""
FILE "1Q_t_1139-1148.mp3" MP3
  TRACK 01 AUDIO
    TITLE "1Q_t_1139-1148_01"
    INDEX 01 00:00:00
  TRACK 02 AUDIO
    TITLE "1Q_t_1139-1148_02"
    INDEX 01 00:01:33
  TRACK 03 AUDIO
    TITLE "1Q_t_1139-1148_03"
    INDEX 01 00:01:41
  TRACK 04 AUDIO
    TITLE "1Q_t_1139-1148_04"
    INDEX 01 00:03:48
  TRACK 05 AUDIO
    TITLE "1Q_t_1139-1148_05"
    INDEX 01 00:03:54
  TRACK 06 AUDIO
    TITLE "1Q_t_1139-1148_06"
    INDEX 01 00:09:46
  TRACK 07 AUDIO
    TITLE "1Q_t_1139-1148_07"
    INDEX 01 00:10:19
  TRACK 08 AUDIO
    TITLE "1Q_t_1139-1148_08"
    INDEX 01 00:11:32
  TRACK 09 AUDIO
    TITLE "1Q_t_1139-1148_09"
    INDEX 01 00:11:39
  TRACK 10 AUDIO
    TITLE "1Q_t_1139-1148_10"
    INDEX 01 00:14:34
  TRACK 11 AUDIO
    TITLE "1Q_t_1139-1148_11"
    INDEX 01 00:14:42
  TRACK 12 AUDIO
    TITLE "1Q_t_1139-1148_12"
    INDEX 01 00:21:46
  TRACK 13 AUDIO
    TITLE "1Q_t_1139-1148_13"
    INDEX 01 00:22:18
  TRACK 14 AUDIO
    TITLE "1Q_t_1139-1148_14"
    INDEX 01 00:23:21
  TRACK 15 AUDIO
    TITLE "1Q_t_1139-1148_15"
    INDEX 01 00:23:29
  TRACK 16 AUDIO
    TITLE "1Q_t_1139-1148_16"
    INDEX 01 00:25:55
  TRACK 17 AUDIO
    TITLE "1Q_t_1139-1148_17"
    INDEX 01 00:25:63
  TRACK 18 AUDIO
    TITLE "1Q_t_1139-1148_18"
    INDEX 01 00:31:07
  TRACK 19 AUDIO
    TITLE "1Q_t_1139-1148_19"
    INDEX 01 00:31:52
  TRACK 20 AUDIO
    TITLE "1Q_t_1139-1148_20"
    INDEX 01 00:32:44
  TRACK 21 AUDIO
    TITLE "1Q_t_1139-1148_21"
    INDEX 01 00:32:55
  TRACK 22 AUDIO
    TITLE "1Q_t_1139-1148_22"
    INDEX 01 00:35:44
  TRACK 23 AUDIO
    TITLE "1Q_t_1139-1148_23"
    INDEX 01 00:35:50
  TRACK 24 AUDIO
    TITLE "1Q_t_1139-1148_24"
    INDEX 01 00:39:57
  TRACK 25 AUDIO
    TITLE "1Q_t_1139-1148_25"
    INDEX 01 00:40:27
  TRACK 26 AUDIO
    TITLE "1Q_t_1139-1148_26"
    INDEX 01 00:41:39
  TRACK 27 AUDIO
    TITLE "1Q_t_1139-1148_27"
    INDEX 01 00:41:46
  TRACK 28 AUDIO
    TITLE "1Q_t_1139-1148_28"
    INDEX 01 00:45:03
  TRACK 29 AUDIO
    TITLE "1Q_t_1139-1148_29"
    INDEX 01 00:45:11
  TRACK 30 AUDIO
    TITLE "1Q_t_1139-1148_30"
    INDEX 01 00:50:10
  TRACK 31 AUDIO
    TITLE "1Q_t_1139-1148_31"
    INDEX 01 00:50:57
  TRACK 32 AUDIO
    TITLE "1Q_t_1139-1148_32"
    INDEX 01 00:52:07
  TRACK 33 AUDIO
    TITLE "1Q_t_1139-1148_33"
    INDEX 01 00:52:15
  TRACK 34 AUDIO
    TITLE "1Q_t_1139-1148_34"
    INDEX 01 00:55:27
  TRACK 35 AUDIO
    TITLE "1Q_t_1139-1148_35"
    INDEX 01 00:55:35
  TRACK 36 AUDIO
    TITLE "1Q_t_1139-1148_36"
    INDEX 01 01:01:61
  TRACK 37 AUDIO
    TITLE "1Q_t_1139-1148_37"
    INDEX 01 01:02:33
  TRACK 38 AUDIO
    TITLE "1Q_t_1139-1148_38"
    INDEX 01 01:03:38
  TRACK 39 AUDIO
    TITLE "1Q_t_1139-1148_39"
    INDEX 01 01:03:46
  TRACK 40 AUDIO
    TITLE "1Q_t_1139-1148_40"
    INDEX 01 01:06:07
  TRACK 41 AUDIO
    TITLE "1Q_t_1139-1148_41"
    INDEX 01 01:06:13
  TRACK 42 AUDIO
    TITLE "1Q_t_1139-1148_42"
    INDEX 01 01:12:22
  TRACK 43 AUDIO
    TITLE "1Q_t_1139-1148_43"
    INDEX 01 01:12:67
  TRACK 44 AUDIO
    TITLE "1Q_t_1139-1148_44"
    INDEX 01 01:14:03
  TRACK 45 AUDIO
    TITLE "1Q_t_1139-1148_45"
    INDEX 01 01:14:11
  TRACK 46 AUDIO
    TITLE "1Q_t_1139-1148_46"
    INDEX 01 01:15:69
  TRACK 47 AUDIO
    TITLE "1Q_t_1139-1148_47"
    INDEX 01 01:16:00
  TRACK 48 AUDIO
    TITLE "1Q_t_1139-1148_48"
    INDEX 01 01:22:32
  TRACK 49 AUDIO
    TITLE "1Q_t_1139-1148_49"
    INDEX 01 01:23:02
  TRACK 50 AUDIO
    TITLE "1Q_t_1139-1148_50"
    INDEX 01 01:24:17
  TRACK 51 AUDIO
    TITLE "1Q_t_1139-1148_51"
    INDEX 01 01:24:25
  TRACK 52 AUDIO
    TITLE "1Q_t_1139-1148_52"
    INDEX 01 01:26:35
  TRACK 53 AUDIO
    TITLE "1Q_t_1139-1148_53"
    INDEX 01 01:26:41
  TRACK 54 AUDIO
    TITLE "1Q_t_1139-1148_54"
    INDEX 01 01:33:47
  TRACK 55 AUDIO
    TITLE "1Q_t_1139-1148_55"
    INDEX 01 01:34:17
  TRACK 56 AUDIO
    TITLE "1Q_t_1139-1148_56"
    INDEX 01 01:35:34
  TRACK 57 AUDIO
    TITLE "1Q_t_1139-1148_57"
    INDEX 01 01:35:42
  TRACK 58 AUDIO
    TITLE "1Q_t_1139-1148_58"
    INDEX 01 01:37:45
  TRACK 59 AUDIO
    TITLE "1Q_t_1139-1148_59"
    INDEX 01 01:37:53
  TRACK 60 AUDIO
    TITLE "1Q_t_1139-1148_60"
    INDEX 01 01:44:12
